<?xml version="1.0" standalone="no"?>
<!DOCTYPE svg PUBLIC "-//W3C//DTD SVG 20010904//EN"
 "http://www.w3.org/TR/2001/REC-SVG-20010904/DTD/svg10.dtd">
<svg version="1.0" xmlns="http://www.w3.org/2000/svg"
 width="512.000000pt" height="512.000000pt" viewBox="0 0 512.000000 512.000000"
 preserveAspectRatio="xMidYMid meet">
<metadata>
Created by potrace 1.11, written by Peter Selinger 2001-2013
</metadata>
<g transform="translate(0.000000,512.000000) scale(0.100000,-0.100000)"
fill="#000000" stroke="none">
<path d="M2410 5025 c-17 -20 -14 -111 5 -186 39 -148 97 -278 185 -411 22
-33 40 -63 40 -66 0 -4 -10 -12 -22 -17 -18 -8 -23 -18 -24 -48 0 -29 -10 -51
-42 -92 -23 -29 -42 -58 -42 -64 0 -6 -7 -11 -16 -11 -9 0 -125 -36 -258 -79
-280 -93 -507 -161 -533 -161 -10 0 -27 -6 -38 -14 -11 -7 -45 -19 -75 -26
-85 -21 -93 -31 -88 -120 5 -112 46 -188 168 -310 156 -156 322 -237 530 -258
l65 -7 -56 -32 c-116 -66 -164 -164 -103 -212 l25 -20 -63 -83 c-227 -297
-398 -722 -436 -1083 -9 -88 -9 -351 0 -427 l6 -56 -131 -1 c-92 0 -160 -6
-226 -20 -52 -11 -98 -18 -103 -15 -4 3 -8 0 -8 -5 0 -6 -8 -11 -18 -11 -11 0
-45 -9 -78 -20 -68 -24 -81 -21 -87 17 -2 15 -3 11 -2 -9 3 -36 1 -38 -49 -60
-174 -77 -291 -153 -382 -250 -107 -115 -147 -212 -140 -341 5 -80 37 -150 99
-215 39 -41 45 -43 85 -39 31 3 45 1 51 -10 4 -8 30 -37 56 -64 106 -108 262
-145 400 -97 75 27 128 46 160 59 11 4 46 10 78 13 109 11 208 66 300 165 57
62 83 107 96 166 6 25 12 31 39 33 28 3 32 0 32 -22 0 -33 19 -38 148 -38 102
0 109 -2 143 -29 85 -67 220 -119 312 -119 39 0 47 -3 47 -18 0 -39 31 -52
142 -57 78 -4 116 -1 147 10 34 12 41 12 41 0 0 -30 52 -75 103 -89 78 -22
129 -25 396 -27 266 -1 461 -22 523 -56 27 -14 55 -18 148 -16 63 0 160 1 215
2 111 1 180 15 211 42 11 11 29 19 40 19 46 0 125 75 139 133 5 17 14 27 26
27 10 0 26 12 36 28 10 15 28 35 41 45 42 35 55 73 49 153 -7 86 -20 114 -79
170 -76 73 -95 79 -253 79 -77 0 -144 3 -150 6 -18 12 -70 20 -153 23 -46 2
-85 6 -87 8 -2 2 7 26 20 53 41 84 66 199 72 341 10 234 -29 395 -129 525 -28
37 -28 49 3 49 32 0 59 72 74 198 9 70 9 338 0 432 -27 309 -127 500 -275 529
-25 5 -38 10 -30 11 8 1 24 3 35 5 11 2 57 5 102 6 146 3 232 28 233 67 0 6 6
12 13 12 28 0 175 79 228 123 83 68 129 141 136 214 7 77 -7 119 -60 179 -36
41 -163 134 -199 146 -7 3 -3 15 12 36 27 36 33 103 14 142 -7 14 -24 37 -39
52 -25 26 -26 28 -11 50 20 28 21 92 1 108 -16 13 -70 16 -103 6 -11 -4 -37 0
-56 8 -28 11 -36 21 -36 40 0 18 -30 53 -121 138 -98 93 -121 121 -125 149 -9
55 -26 82 -74 114 -25 16 -67 51 -94 77 -188 182 -594 350 -974 402 -141 20
-186 20 -202 1z m70 -1865 c-7 -4 -22 -5 -34 -2 -20 6 -20 6 4 12 29 8 48 1
30 -10z"/>
<path d="M1136 1793 c-6 -14 -5 -15 5 -6 7 7 10 15 7 18 -3 3 -9 -2 -12 -12z"/>
<path d="M1270 1750 c12 -16 24 -30 26 -30 3 0 -4 14 -16 30 -12 17 -24 30
-26 30 -3 0 4 -13 16 -30z"/>
<path d="M1121 1754 c0 -11 3 -14 6 -6 3 7 2 16 -1 19 -3 4 -6 -2 -5 -13z"/>
<path d="M1309 1692 c5 -10 18 -25 27 -33 11 -9 9 -2 -6 19 -26 35 -36 42 -21
14z"/>
<path d="M1261 1664 c0 -11 3 -14 6 -6 3 7 2 16 -1 19 -3 4 -6 -2 -5 -13z"/>
<path d="M1056 1655 c-9 -26 -7 -32 5 -12 6 10 9 21 6 23 -2 3 -7 -2 -11 -11z"/>
<path d="M1245 1629 c-4 -6 -5 -12 -2 -15 2 -3 7 2 10 11 7 17 1 20 -8 4z"/>
<path d="M1041 1613 c-1 -6 -4 -20 -7 -30 -5 -17 -5 -17 6 0 6 10 9 23 6 30
-3 9 -5 9 -5 0z"/>
<path d="M1222 1553 c-15 -48 -8 -55 8 -8 7 20 10 38 8 41 -3 2 -10 -13 -16
-33z"/>
<path d="M1023 1545 c-3 -9 -3 -18 -1 -21 3 -3 8 4 11 16 6 23 -1 27 -10 5z"/>
<path d="M1008 1476 c-2 -19 -1 -33 3 -30 9 5 17 64 8 64 -4 0 -9 -15 -11 -34z"/>
<path d="M1203 1485 c-3 -9 -3 -18 -1 -21 3 -3 8 4 11 16 6 23 -1 27 -10 5z"/>
<path d="M1116 1442 c-3 -5 1 -9 9 -9 8 0 12 4 9 9 -3 4 -7 8 -9 8 -2 0 -6 -4
-9 -8z"/>
<path d="M1155 1440 c2 -3 18 -7 36 -8 18 -1 30 1 26 5 -9 8 -67 12 -62 3z"/>
<path d="M1058 1433 c7 -3 16 -2 19 1 4 3 -2 6 -13 5 -11 0 -14 -3 -6 -6z"/>
<path d="M980 1413 c-38 -25 -80 -66 -80 -77 0 -6 7 -1 15 11 9 12 29 32 46
44 26 18 33 19 40 8 7 -11 9 -11 9 3 0 9 8 19 18 21 14 4 14 5 -3 6 -11 0 -32
-6 -45 -16z"/>
<path d="M1192 1400 c0 -14 2 -19 5 -12 2 6 2 18 0 25 -3 6 -5 1 -5 -13z"/>
<path d="M989 1338 c-1 -24 -2 -58 -3 -75 -1 -18 1 -33 5 -33 4 0 8 8 8 18 0
9 1 43 3 75 2 31 0 57 -4 57 -5 0 -9 -19 -9 -42z"/>
<path d="M1182 1340 c0 -19 2 -27 5 -17 2 9 2 25 0 35 -3 9 -5 1 -5 -18z"/>
<path d="M910 1312 c0 -4 10 -13 23 -21 22 -14 22 -14 3 8 -20 22 -26 25 -26
13z"/>
<path d="M1172 1258 c-1 -23 0 -39 2 -37 8 8 14 79 7 79 -4 0 -8 -19 -9 -42z"/>
</g>
</svg>
